# Wavefront OBJ file made by Mineways version 11.06, http://mineways.com
# World: New World (3)
# Terrain file name: U:\mineways\terrainExt.png
# Color scheme: Standard
# Thu Jan 25 02:11:43 2024

# Selection location min to max: -7, -64, -36 to 4, 319, -30
#   Non-empty selection location min to max: -7, -64, -36 to 4, -57, -30

# Set render type: Wavefront OBJ absolute indices
# Units for the model vertex data itself: meters

# 276 vertices, 272 faces (544 triangles), 103 blocks, 0 billboards/bits
# block dimensions: X=12 by Y=8 (height) by Z=7 blocks
# Elevation shading: no
# Lighting: no
# Transparent water: no
# Map grid: no
# File type: Export all textures to three large images
# Texture output RGB: YES
# Texture output A: YES
# Texture output RGBA: YES
# Export separate types: YES
# Export individual blocks: no
#   Material per family: YES
#   Split by block type: no
# Make groups objects: no
# Custom material: YES
# Export lesser blocks: YES
# Fatten lesser blocks: no
# Simplify mesh: no
# Double all billboard faces: no
# Create composite overlay faces: no
# Center model: YES
# Use biomes: no
# Create block faces at the borders: YES
# Tree leaves solid: YES
# Rotate model 0.000000 degrees
# Make Z the up direction instead of Y: no
# Scale model by making each block 1000 mm high
# Data operation options:
#   Fill air bubbles: no; Seal off entrances: no; Fill in isolated tunnels in base of model: no
#   Connect parts sharing an edge: no; Connect corner tips: no; Weld all shared edges: no
#   Delete floating objects: trees and parts smaller than 16 blocks: no
#   Hollow out bottom of model, making the walls 1000 mm thick: no; Superhollow: no
# Melt snow blocks: no
#   Debug: show separate parts as colors: no
#   Debug: show weld blocks in bright colors: no

# Full world path: C:\Users\lelan\AppData\Roaming\.minecraft\saves\New World (3)
# Full terrainExt.png path: U:\mineways\terrainExt.png
# Full current path: U:\mineways

mtllib test_blimp.mtl

o New_World_(3)__-7_-64_-36_to_4_319_-30
vn -1 0 0
vn 0 -1 0
vn 0 0 -1
vn 1 0 0
vn 0 1 0
vn 0 0 1
vn -0.707107 0 -0.707107
vn -0.707107 0 0.707107
vn 0.707107 0 -0.707107
vn 0.707107 0 0.707107
vn -0.707107 -0.707107 0
vn 0 -0.707107 -0.707107
vn 0.707107 -0.707107 0
vn 0 -0.707107 0.707107
vn -0.707107 0.707107 0
vn 0 0.707107 -0.707107
vn 0.707107 0.707107 0
vn 0 0.707107 0.707107
vn -0.92388 0 -0.382683
vn -0.92388 0 0.382683
vn 0.92388 0 -0.382683
vn 0.92388 0 0.382683
vn -0.382683 0 -0.92388
vn -0.382683 0 0.92388
vn 0.382683 0 -0.92388
vn 0.382683 0 0.92388
vn -0.397273 0.9177 0
vn 0.397273 -0.9177 0
vn 0.397273 0.9177 0
vn -0.397273 -0.9177 0
vn 0 0.9177 -0.397273
vn 0 -0.9177 0.397273
vn 0 0.9177 0.397273
vn 0 -0.9177 -0.397273
vn -0.440932 0.897541 0
vn 0.440932 -0.897541 0
vn 0.440932 0.897541 0
vn -0.440932 -0.897541 0
vn 0 0.897541 -0.440932
vn 0 -0.897541 0.440932
vn 0 0.897541 0.440932
vn 0 -0.897541 -0.440932
# bedrock
vt 0.299804688 0.983398438
vt 0.315429688 0.983398438
vt 0.315429688 0.999023438
vt 0.299804688 0.999023438
# white_wool
vt 0.141601562 0.965820312
vt 0.157226562 0.965820312
vt 0.157226562 0.981445312
vt 0.141601562 0.981445312
# stripped_dark_oak_log
vt 0.791992188 0.825195312
vt 0.807617188 0.825195312
vt 0.807617188 0.840820312
vt 0.791992188 0.840820312
# packed_ice
vt 0.071289062 0.895507812
vt 0.086914062 0.895507812
vt 0.086914062 0.911132812
vt 0.071289062 0.911132812
# stripped_spruce_log
vt 0.721679688 0.825195312
vt 0.737304688 0.825195312
vt 0.737304688 0.840820312
vt 0.721679688 0.840820312
# dirt
vt 0.036132812 0.983398438
vt 0.051757812 0.983398438
vt 0.051757812 0.999023438
vt 0.036132812 0.999023438
# polished_andesite
vt 0.370117188 0.877929688
vt 0.385742188 0.877929688
vt 0.385742188 0.893554688
vt 0.370117188 0.893554688
v -6 0 -3
v -6 0 -2
v -6 1 -2
v -6 1 -3
v -5 0 -2
v -5 0 -3
v -5 1 -3
v -5 1 -2
v -6 0 -1
v -6 1 -1
v -5 0 -1
v -5 1 -1
v -6 0 0
v -6 1 0
v -5 0 0
v -5 1 0
v -6 0 1
v -6 1 1
v -5 0 1
v -5 1 1
v -6 0 2
v -6 1 2
v -5 0 2
v -5 1 2
v -6 0 3
v -6 1 3
v -5 0 3
v -5 1 3
v -6 0 4
v -6 1 4
v -5 0 4
v -5 1 4
v -4 0 -2
v -4 0 -3
v -4 1 -3
v -4 1 -2
v -4 0 -1
v -4 1 -1
v -4 0 0
v -4 1 0
v -4 0 1
v -4 1 1
v -5 5 0
v -5 5 1
v -5 6 1
v -5 6 0
v -4 5 1
v -4 5 0
v -4 6 0
v -4 6 1
v -4 0 2
v -4 1 2
v -4 0 3
v -4 1 3
v -4 0 4
v -4 1 4
v -3 0 -2
v -3 0 -3
v -3 1 -3
v -3 1 -2
v -4 5 -1
v -4 6 -1
v -3 5 0
v -3 5 -1
v -3 6 -1
v -3 6 0
v -4 4 0
v -4 4 1
v -3 4 1
v -3 4 0
v -3 5 1
v -4 7 1
v -4 7 0
v -3 7 0
v -3 7 1
v -3 6 1
v -4 5 2
v -4 6 2
v -3 5 2
v -3 6 2
v -2 0 -2
v -2 0 -3
v -2 1 -3
v -2 1 -2
v -3 4 -1
v -2 4 0
v -2 4 -1
v -2 5 -1
v -2 6 -1
v -2 6 0
v -3 3 0
v -3 3 1
v -2 3 1
v -2 3 0
v -2 4 1
v -2 7 0
v -2 7 1
v -2 6 1
v -3 4 2
v -2 4 2
v -2 5 2
v -2 6 2
v -1 0 -2
v -1 0 -3
v -1 1 -3
v -1 1 -2
v -1 4 0
v -1 4 -1
v -1 5 -1
v -1 6 -1
v -2 7 -1
v -1 7 -1
v -1 7 0
v -2 2 0
v -2 2 1
v -1 2 1
v -1 2 0
v -1 3 0
v -1 3 1
v -1 4 1
v -1 7 1
v -1 4 2
v -1 5 2
v -1 6 2
v -2 7 2
v -1 7 2
v 0 0 -2
v 0 0 -3
v 0 1 -3
v 0 1 -2
v -1 4 -2
v -1 5 -2
v 0 4 -1
v 0 4 -2
v 0 5 -2
v 0 5 -1
v 0 4 0
v 0 6 -1
v 0 7 -1
v 0 7 0
v 0 2 1
v 0 2 0
v 0 3 0
v 0 3 1
v 0 4 1
v -1 8 1
v -1 8 0
v 0 8 0
v 0 8 1
v 0 7 1
v 0 4 2
v 0 5 2
v 0 6 2
v 0 7 2
v -1 4 3
v -1 5 3
v 0 4 3
v 0 5 3
v 1 0 -2
v 1 0 -3
v 1 1 -3
v 1 1 -2
v 1 4 -1
v 1 4 -2
v 1 5 -2
v 1 5 -1
v 0 3 -1
v 1 3 0
v 1 3 -1
v 1 4 0
v 1 6 -1
v 1 7 -1
v 1 6 0
v 1 7 0
v 1 2 1
v 1 2 0
v 1 3 1
v 1 8 0
v 1 8 1
v 1 7 1
v 0 3 2
v 1 3 2
v 1 4 1
v 1 4 2
v 1 5 2
v 1 6 2
v 1 6 1
v 1 7 2
v 1 4 3
v 1 5 3
v 2 0 -2
v 2 0 -3
v 2 1 -3
v 2 1 -2
v 2 4 -1
v 2 4 -2
v 2 5 -2
v 2 5 -1
v 2 4 0
v 2 6 -1
v 2 6 0
v 2 3 1
v 2 3 0
v 2 4 1
v 2 7 0
v 2 6 1
v 2 7 1
v 2 8 0
v 2 8 1
v 2 4 2
v 2 6 2
v 2 5 2
v 2 4 3
v 2 5 3
v 3 0 -2
v 3 0 -3
v 3 1 -3
v 3 1 -2
v 3 4 0
v 3 4 -1
v 3 5 -1
v 3 5 0
v 3 6 -1
v 3 6 0
v 3 4 1
v 3 5 1
v 3 6 1
v 3 7 0
v 3 7 1
v 3 4 2
v 3 5 2
v 3 6 2
v 4 0 -2
v 4 0 -3
v 4 1 -3
v 4 1 -2
v 4 4 1
v 4 4 0
v 4 5 0
v 4 5 1
v 5 0 -2
v 5 0 -3
v 5 1 -3
v 5 1 -2
v 4 3 -1
v 4 3 0
v 4 4 -1
v 5 3 0
v 5 3 -1
v 5 4 -1
v 5 4 0
v 4 5 -1
v 4 6 0
v 4 6 -1
v 5 5 0
v 5 5 -1
v 5 6 -1
v 5 6 0
v 5 4 1
v 5 5 1
v 4 3 1
v 4 3 2
v 4 4 2
v 5 3 2
v 5 3 1
v 5 4 2
v 4 5 2
v 4 6 2
v 4 6 1
v 5 5 2
v 5 6 1
v 5 6 2
v 6 0 -2
v 6 0 -3
v 6 1 -3
v 6 1 -2

g Stone
usemtl Stone
f 237/28/2 238/25/2 251/26/2 259/27/2
f 238/26/3 239/27/3 255/28/3 251/25/3
f 259/25/4 251/26/4 255/27/4 260/28/4
f 240/25/5 260/26/5 255/27/5 239/28/5
f 237/25/6 259/26/6 260/27/6 240/28/6

g Dirt
usemtl Dirt
f 246/22/1 238/23/1 247/24/1 245/21/1
f 246/21/2 245/22/2 249/23/2 248/24/2
f 245/22/3 247/23/3 250/24/3 249/21/3
f 248/21/4 249/22/4 250/23/4 251/24/4
f 238/22/5 251/23/5 250/24/5 247/21/5
f 246/21/6 248/22/6 251/23/6 238/24/6
f 239/22/1 253/23/1 254/24/1 252/21/1
f 239/22/2 252/23/2 256/24/2 255/21/2
f 252/22/3 254/23/3 257/24/3 256/21/3
f 255/21/4 256/22/4 257/23/4 258/24/4
f 253/23/5 258/24/5 257/21/5 254/22/5
f 239/21/6 255/22/6 258/23/6 253/24/6
f 262/22/1 263/23/1 237/24/1 261/21/1
f 262/22/2 261/23/2 265/24/2 264/21/2
f 261/22/3 237/23/3 259/24/3 265/21/3
f 264/21/4 265/22/4 259/23/4 266/24/4
f 263/23/5 266/24/5 259/21/5 237/22/5
f 262/21/6 264/22/6 266/23/6 263/24/6
f 267/22/1 268/23/1 269/24/1 240/21/1
f 267/21/2 240/22/2 260/23/2 270/24/2
f 240/22/3 269/23/3 271/24/3 260/21/3
f 270/21/4 260/22/4 271/23/4 272/24/4
f 268/22/5 272/23/5 271/24/5 269/21/5
f 267/21/6 270/22/6 272/23/6 268/24/6

g Bedrock
usemtl Bedrock
f 2/2/1 3/3/1 4/4/1 1/1/1
f 2/1/2 1/4/2 6/3/2 5/2/2
f 1/2/3 4/3/3 7/4/3 6/1/3
f 3/4/5 8/3/5 7/2/5 4/1/5
f 9/2/1 10/3/1 3/4/1 2/1/1
f 9/4/2 2/1/2 5/2/2 11/3/2
f 10/1/5 12/2/5 8/3/5 3/4/5
f 13/2/1 14/3/1 10/4/1 9/1/1
f 13/2/2 9/3/2 11/4/2 15/1/2
f 14/3/5 16/4/5 12/1/5 10/2/5
f 17/2/1 18/3/1 14/4/1 13/1/1
f 17/3/2 13/2/2 15/1/2 19/4/2
f 18/2/5 20/1/5 16/4/5 14/3/5
f 21/2/1 22/3/1 18/4/1 17/1/1
f 21/4/2 17/1/2 19/2/2 23/3/2
f 22/1/5 24/2/5 20/3/5 18/4/5
f 25/2/1 26/3/1 22/4/1 21/1/1
f 25/3/2 21/2/2 23/1/2 27/4/2
f 26/2/5 28/1/5 24/4/5 22/3/5
f 29/2/1 30/3/1 26/4/1 25/1/1
f 29/1/2 25/4/2 27/3/2 31/2/2
f 30/4/5 32/3/5 28/2/5 26/1/5
f 29/1/6 31/2/6 32/3/6 30/4/6
f 5/2/2 6/3/2 34/4/2 33/1/2
f 6/2/3 7/3/3 35/4/3 34/1/3
f 8/3/5 36/4/5 35/1/5 7/2/5
f 11/2/2 5/3/2 33/4/2 37/1/2
f 37/1/4 33/2/4 36/3/4 38/4/4
f 12/3/5 38/4/5 36/1/5 8/2/5
f 15/3/2 11/2/2 37/1/2 39/4/2
f 39/1/4 37/2/4 38/3/4 40/4/4
f 16/2/5 40/1/5 38/4/5 12/3/5
f 19/3/2 15/2/2 39/1/2 41/4/2
f 41/1/4 39/2/4 40/3/4 42/4/4
f 20/2/5 42/1/5 40/4/5 16/3/5
f 23/4/2 19/1/2 41/2/2 51/3/2
f 51/1/4 41/2/4 42/3/4 52/4/4
f 24/1/5 52/2/5 42/3/5 20/4/5
f 27/2/2 23/3/2 51/4/2 53/1/2
f 53/1/4 51/2/4 52/3/4 54/4/4
f 28/3/5 54/4/5 52/1/5 24/2/5
f 31/2/2 27/3/2 53/4/2 55/1/2
f 55/1/4 53/2/4 54/3/4 56/4/4
f 32/3/5 56/4/5 54/1/5 28/2/5
f 31/1/6 55/2/6 56/3/6 32/4/6
f 33/4/2 34/1/2 58/2/2 57/3/2
f 34/2/3 35/3/3 59/4/3 58/1/3
f 36/1/5 60/2/5 59/3/5 35/4/5
f 33/1/6 57/2/6 60/3/6 36/4/6
f 57/3/2 58/2/2 82/1/2 81/4/2
f 58/2/3 59/3/3 83/4/3 82/1/3
f 60/2/5 84/1/5 83/4/5 59/3/5
f 57/1/6 81/2/6 84/3/6 60/4/6
f 81/4/2 82/1/2 104/2/2 103/3/2
f 82/2/3 83/3/3 105/4/3 104/1/3
f 84/1/5 106/2/5 105/3/5 83/4/5
f 81/1/6 103/2/6 106/3/6 84/4/6
f 103/1/2 104/4/2 128/3/2 127/2/2
f 104/2/3 105/3/3 129/4/3 128/1/3
f 106/4/5 130/3/5 129/2/5 105/1/5
f 103/1/6 127/2/6 130/3/6 106/4/6
f 127/3/2 128/2/2 160/1/2 159/4/2
f 128/2/3 129/3/3 161/4/3 160/1/3
f 130/2/5 162/1/5 161/4/5 129/3/5
f 127/1/6 159/2/6 162/3/6 130/4/6
f 159/4/2 160/1/2 192/2/2 191/3/2
f 160/2/3 161/3/3 193/4/3 192/1/3
f 162/1/5 194/2/5 193/3/5 161/4/5
f 159/1/6 191/2/6 194/3/6 162/4/6
f 191/4/2 192/1/2 216/2/2 215/3/2
f 192/2/3 193/3/3 217/4/3 216/1/3
f 194/1/5 218/2/5 217/3/5 193/4/5
f 191/1/6 215/2/6 218/3/6 194/4/6
f 215/3/2 216/2/2 234/1/2 233/4/2
f 216/2/3 217/3/3 235/4/3 234/1/3
f 218/2/5 236/1/5 235/4/5 217/3/5
f 215/1/6 233/2/6 236/3/6 218/4/6
f 233/1/2 234/4/2 242/3/2 241/2/2
f 234/2/3 235/3/3 243/4/3 242/1/3
f 236/4/5 244/3/5 243/2/5 235/1/5
f 233/1/6 241/2/6 244/3/6 236/4/6
f 241/2/2 242/3/2 274/4/2 273/1/2
f 242/2/3 243/3/3 275/4/3 274/1/3
f 273/1/4 274/2/4 275/3/4 276/4/4
f 244/3/5 276/4/5 275/1/5 243/2/5
f 241/1/6 273/2/6 276/3/6 244/4/6

g Wool
usemtl Wool
f 44/6/1 45/7/1 46/8/1 43/5/1
f 44/8/2 43/5/2 48/6/2 47/7/2
f 43/6/3 46/7/3 49/8/3 48/5/3
f 45/5/5 50/6/5 49/7/5 46/8/5
f 44/5/6 47/6/6 50/7/6 45/8/6
f 48/6/1 49/7/1 62/8/1 61/5/1
f 48/8/2 61/5/2 64/6/2 63/7/2
f 61/6/3 62/7/3 65/8/3 64/5/3
f 49/5/5 66/6/5 65/7/5 62/8/5
f 68/6/1 47/7/1 48/8/1 67/5/1
f 68/8/2 67/5/2 70/6/2 69/7/2
f 67/6/3 48/7/3 63/8/3 70/5/3
f 68/5/6 69/6/6 71/7/6 47/8/6
f 50/6/1 72/7/1 73/8/1 49/5/1
f 49/6/3 73/7/3 74/8/3 66/5/3
f 72/5/5 75/6/5 74/7/5 73/8/5
f 50/5/6 76/6/6 75/7/6 72/8/6
f 77/6/1 78/7/1 50/8/1 47/5/1
f 77/8/2 47/5/2 71/6/2 79/7/2
f 78/5/5 80/6/5 76/7/5 50/8/5
f 77/5/6 79/6/6 80/7/6 78/8/6
f 70/6/1 63/7/1 64/8/1 85/5/1
f 70/8/2 85/5/2 87/6/2 86/7/2
f 85/6/3 64/7/3 88/8/3 87/5/3
f 64/6/3 65/7/3 89/8/3 88/5/3
f 66/5/5 90/6/5 89/7/5 65/8/5
f 66/6/3 74/7/3 96/8/3 90/5/3
f 75/5/5 97/6/5 96/7/5 74/8/5
f 76/5/6 98/6/6 97/7/6 75/8/6
f 99/6/1 79/7/1 71/8/1 69/5/1
f 99/8/2 69/5/2 95/6/2 100/7/2
f 99/5/6 100/6/6 101/7/6 79/8/6
f 80/5/5 102/6/5 98/7/5 76/8/5
f 79/5/6 101/6/6 102/7/6 80/8/6
f 86/8/2 87/5/2 108/6/2 107/7/2
f 87/6/3 88/7/3 109/8/3 108/5/3
f 88/6/3 89/7/3 110/8/3 109/5/3
f 90/6/1 96/7/1 111/8/1 89/5/1
f 89/6/3 111/7/3 112/8/3 110/5/3
f 96/5/5 113/6/5 112/7/5 111/8/5
f 97/5/5 121/6/5 113/7/5 96/8/5
f 100/8/2 95/5/2 120/6/2 122/7/2
f 100/5/6 122/6/6 123/7/6 101/8/6
f 101/5/6 123/6/6 124/7/6 102/8/6
f 102/6/1 125/7/1 97/8/1 98/5/1
f 125/5/5 126/6/5 121/7/5 97/8/5
f 102/5/6 124/6/6 126/7/6 125/8/6
f 108/6/1 109/7/1 132/8/1 131/5/1
f 108/8/2 131/5/2 134/6/2 133/7/2
f 131/6/3 132/7/3 135/8/3 134/5/3
f 109/5/5 136/6/5 135/7/5 132/8/5
f 107/8/2 108/5/2 133/6/2 137/7/2
f 109/6/3 110/7/3 138/8/3 136/5/3
f 110/6/3 112/7/3 139/8/3 138/5/3
f 113/5/5 140/6/5 139/7/5 112/8/5
f 121/6/1 146/7/1 147/8/1 113/5/1
f 113/6/3 147/7/3 148/8/3 140/5/3
f 146/5/5 149/6/5 148/7/5 147/8/5
f 121/5/6 150/6/6 149/7/6 146/8/6
f 122/8/2 120/5/2 145/6/2 151/7/2
f 123/5/6 152/6/6 153/7/6 124/8/6
f 126/5/5 154/6/5 150/7/5 121/8/5
f 124/5/6 153/6/6 154/7/6 126/8/6
f 155/6/1 156/7/1 123/8/1 122/5/1
f 155/8/2 122/5/2 151/6/2 157/7/2
f 156/5/5 158/6/5 152/7/5 123/8/5
f 155/5/6 157/6/6 158/7/6 156/8/6
f 133/8/2 134/5/2 164/6/2 163/7/2
f 134/6/3 135/7/3 165/8/3 164/5/3
f 136/5/5 166/6/5 165/7/5 135/8/5
f 136/6/3 138/7/3 171/8/3 166/5/3
f 138/6/3 139/7/3 172/8/3 171/5/3
f 173/5/4 171/6/4 172/7/4 174/8/4
f 140/5/5 174/6/5 172/7/5 139/8/5
f 140/6/3 148/7/3 178/8/3 174/5/3
f 149/5/5 179/6/5 178/7/5 148/8/5
f 150/5/6 180/6/6 179/7/6 149/8/6
f 152/5/6 185/6/6 186/7/6 153/8/6
f 186/5/4 187/6/4 180/7/4 188/8/4
f 154/5/5 188/6/5 180/7/5 150/8/5
f 153/5/6 186/6/6 188/7/6 154/8/6
f 157/8/2 151/5/2 184/6/2 189/7/2
f 158/5/5 190/6/5 185/7/5 152/8/5
f 157/5/6 189/6/6 190/7/6 158/8/6
f 163/8/2 164/5/2 196/6/2 195/7/2
f 164/6/3 165/7/3 197/8/3 196/5/3
f 195/5/4 196/6/4 197/7/4 198/8/4
f 166/5/5 198/6/5 197/7/5 165/8/5
f 170/8/2 163/5/2 195/6/2 199/7/2
f 166/6/3 171/7/3 200/8/3 198/5/3
f 173/5/5 201/6/5 200/7/5 171/8/5
f 173/6/3 174/7/3 205/8/3 201/5/3
f 187/5/6 206/6/6 207/7/6 180/8/6
f 174/6/3 178/7/3 208/8/3 205/5/3
f 207/5/4 205/6/4 208/7/4 209/8/4
f 179/5/5 209/6/5 208/7/5 178/8/5
f 180/5/6 207/6/6 209/7/6 179/8/6
f 184/8/2 183/5/2 204/6/2 210/7/2
f 186/5/5 211/6/5 206/7/5 187/8/5
f 185/5/6 212/6/6 211/7/6 186/8/6
f 189/8/2 184/5/2 210/6/2 213/7/2
f 213/5/4 210/6/4 212/7/4 214/8/4
f 190/5/5 214/6/5 212/7/5 185/8/5
f 189/5/6 213/6/6 214/7/6 190/8/6
f 199/8/2 195/5/2 220/6/2 219/7/2
f 195/6/3 198/7/3 221/8/3 220/5/3
f 219/5/4 220/6/4 221/7/4 222/8/4
f 198/6/3 200/7/3 223/8/3 221/5/3
f 222/5/4 221/6/4 223/7/4 224/8/4
f 201/5/5 224/6/5 223/7/5 200/8/5
f 226/5/4 222/6/4 224/7/4 227/8/4
f 201/6/3 205/7/3 228/8/3 224/5/3
f 227/5/4 224/6/4 228/7/4 229/8/4
f 207/5/5 229/6/5 228/7/5 205/8/5
f 206/5/6 227/6/6 229/7/6 207/8/6
f 210/8/2 204/5/2 225/6/2 230/7/2
f 230/5/4 225/6/4 226/7/4 231/8/4
f 210/5/6 230/6/6 231/7/6 212/8/6
f 231/5/4 226/6/4 227/7/4 232/8/4
f 211/5/5 232/6/5 227/7/5 206/8/5
f 212/5/6 231/6/6 232/7/6 211/8/6

g Packed_Ice
usemtl Packed_Ice
f 94/14/3 86/15/3 107/16/3 118/13/3
f 93/13/6 119/14/6 120/15/6 95/16/6
f 118/14/3 107/15/3 137/16/3 143/13/3
f 119/13/6 144/14/6 145/15/6 120/16/6

g Stripped_Oak_Wood
usemtl Stripped_Oak_Wood
f 143/17/1 137/18/1 133/19/1 167/20/1
f 143/18/2 167/19/2 169/20/2 168/17/2
f 167/18/3 133/19/3 163/20/3 169/17/3
f 168/18/4 169/19/4 163/20/4 170/17/4
f 181/17/1 151/18/1 145/19/1 144/20/1
f 181/18/2 144/19/2 177/20/2 182/17/2
f 182/18/4 177/19/4 183/20/4 184/17/4
f 181/17/6 182/18/6 184/19/6 151/20/6
f 177/17/2 168/18/2 203/19/2 202/20/2
f 168/17/3 170/18/3 199/19/3 203/20/3
f 202/17/4 203/18/4 199/19/4 204/20/4
f 177/18/6 202/19/6 204/20/6 183/17/6
f 204/17/2 199/18/2 219/19/2 225/20/2
f 225/17/2 219/18/2 238/19/2 237/20/2
f 219/17/3 222/18/3 239/19/3 238/20/3
f 226/18/5 240/19/5 239/20/5 222/17/5
f 225/18/6 237/19/6 240/20/6 226/17/6

g Stripped_Acacia_Wood
usemtl Stripped_Acacia_Wood
f 92/10/1 69/11/1 70/12/1 91/9/1
f 92/9/2 91/10/2 94/11/2 93/12/2
f 91/9/3 70/10/3 86/11/3 94/12/3
f 92/10/6 93/11/6 95/12/6 69/9/6
f 115/10/1 93/11/1 94/12/1 114/9/1
f 115/12/2 114/9/2 117/10/2 116/11/2
f 114/10/3 94/11/3 118/12/3 117/9/3
f 115/9/6 116/10/6 119/11/6 93/12/6
f 116/12/2 117/9/2 142/10/2 141/11/2
f 117/10/3 118/11/3 143/12/3 142/9/3
f 116/9/6 141/10/6 144/11/6 119/12/6
f 141/12/2 142/9/2 176/10/2 175/11/2
f 142/10/3 143/11/3 168/12/3 176/9/3
f 175/9/4 176/10/4 168/11/4 177/12/4
f 141/9/6 175/10/6 177/11/6 144/12/6
