# Wavefront OBJ file made by Mineways version 11.06, http://mineways.com
# World: New World (3)
# Terrain file name: U:\mineways\terrainExt.png
# Color scheme: Standard
# Wed Jan 24 23:52:41 2024

# Selection location min to max: -33, -64, -107 to -27, 319, -98
#   Non-empty selection location min to max: -33, -64, -107 to -27, -56, -98

# Set render type: Wavefront OBJ absolute indices
# Units for the model vertex data itself: meters

# 470 vertices, 474 faces (948 triangles), 185 blocks, 0 billboards/bits
# block dimensions: X=7 by Y=9 (height) by Z=10 blocks
# Elevation shading: no
# Lighting: no
# Transparent water: no
# Map grid: no
# File type: Export all textures to three large images
# Texture output RGB: YES
# Texture output A: YES
# Texture output RGBA: YES
# Export separate types: YES
# Export individual blocks: no
#   Material per family: YES
#   Split by block type: no
# Make groups objects: no
# Custom material: YES
# Export lesser blocks: YES
# Fatten lesser blocks: no
# Simplify mesh: no
# Double all billboard faces: no
# Create composite overlay faces: no
# Center model: YES
# Use biomes: no
# Create block faces at the borders: YES
# Tree leaves solid: YES
# Rotate model 0.000000 degrees
# Make Z the up direction instead of Y: no
# Scale model by making each block 1000 mm high
# Data operation options:
#   Fill air bubbles: no; Seal off entrances: no; Fill in isolated tunnels in base of model: no
#   Connect parts sharing an edge: no; Connect corner tips: no; Weld all shared edges: no
#   Delete floating objects: trees and parts smaller than 16 blocks: no
#   Hollow out bottom of model, making the walls 1000 mm thick: no; Superhollow: no
# Melt snow blocks: no
#   Debug: show separate parts as colors: no
#   Debug: show weld blocks in bright colors: no

# Full world path: C:\Users\lelan\AppData\Roaming\.minecraft\saves\New World (3)
# Full terrainExt.png path: U:\mineways\terrainExt.png
# Full current path: U:\mineways

mtllib test_boat.mtl

o New_World_(3)__-33_-64_-107_to_-27_319_-98
vn -1 0 0
vn 0 -1 0
vn 0 0 -1
vn 1 0 0
vn 0 1 0
vn 0 0 1
vn -0.707107 0 -0.707107
vn -0.707107 0 0.707107
vn 0.707107 0 -0.707107
vn 0.707107 0 0.707107
vn -0.707107 -0.707107 0
vn 0 -0.707107 -0.707107
vn 0.707107 -0.707107 0
vn 0 -0.707107 0.707107
vn -0.707107 0.707107 0
vn 0 0.707107 -0.707107
vn 0.707107 0.707107 0
vn 0 0.707107 0.707107
vn -0.92388 0 -0.382683
vn -0.92388 0 0.382683
vn 0.92388 0 -0.382683
vn 0.92388 0 0.382683
vn -0.382683 0 -0.92388
vn -0.382683 0 0.92388
vn 0.382683 0 -0.92388
vn 0.382683 0 0.92388
vn -0.397273 0.9177 0
vn 0.397273 -0.9177 0
vn 0.397273 0.9177 0
vn -0.397273 -0.9177 0
vn 0 0.9177 -0.397273
vn 0 -0.9177 0.397273
vn 0 0.9177 0.397273
vn 0 -0.9177 -0.397273
vn -0.440932 0.897541 0
vn 0.440932 -0.897541 0
vn 0.440932 0.897541 0
vn -0.440932 -0.897541 0
vn 0 0.897541 -0.440932
vn 0 -0.897541 0.440932
vn 0 0.897541 0.440932
vn 0 -0.897541 -0.440932
# bedrock
vt 0.299804688 0.983398438
vt 0.315429688 0.983398438
vt 0.315429688 0.999023438
vt 0.299804688 0.999023438
# blue_ice
vt 0.651367188 0.825195312
vt 0.666992188 0.825195312
vt 0.666992188 0.840820312
vt 0.651367188 0.840820312
# blackstone
vt 0.159179688 0.754882812
vt 0.174804688 0.754882812
vt 0.174804688 0.770507812
vt 0.159179688 0.770507812
# blackstone_top
vt 0.141601562 0.754882812
vt 0.157226562 0.754882812
vt 0.157226562 0.770507812
vt 0.141601562 0.770507812
# stripped_dark_oak_log
vt 0.791992188 0.825195312
vt 0.807617188 0.825195312
vt 0.807617188 0.840820312
vt 0.791992188 0.840820312
# acacia_log
vt 0.229492188 0.930664062
vt 0.245117188 0.930664062
vt 0.245117188 0.946289062
vt 0.229492188 0.946289062
# white_wool
vt 0.141601562 0.965820312
vt 0.157226562 0.965820312
vt 0.157226562 0.981445312
vt 0.141601562 0.981445312
# stripped_spruce_log
vt 0.721679688 0.825195312
vt 0.737304688 0.825195312
vt 0.737304688 0.840820312
vt 0.721679688 0.840820312
v -3 0 -5
v -3 0 -4
v -3 1 -4
v -3 1 -5
v -2 0 -4
v -2 0 -5
v -2 1 -5
v -2 1 -4
v -3 2 -5
v -3 2 -4
v -3 3 -4
v -3 3 -5
v -2 2 -4
v -2 2 -5
v -2 3 -5
v -2 3 -4
v -3 0 -3
v -3 1 -3
v -2 0 -3
v -2 1 -3
v -3 2 -3
v -3 3 -3
v -2 2 -3
v -2 3 -3
v -3 0 -2
v -3 1 -2
v -2 0 -2
v -2 1 -2
v -3 2 -2
v -3 3 -2
v -2 2 -2
v -2 3 -2
v -3 0 -1
v -3 1 -1
v -2 0 -1
v -2 1 -1
v -3 2 -1
v -3 3 -1
v -2 2 -1
v -2 3 -1
v -3 0 0
v -3 1 0
v -2 0 0
v -2 1 0
v -3 2 0
v -3 3 0
v -2 2 0
v -2 3 0
v -3 0 1
v -3 1 1
v -2 0 1
v -2 1 1
v -3 2 1
v -3 3 1
v -2 2 1
v -2 3 1
v -3 0 2
v -3 1 2
v -2 0 2
v -2 1 2
v -3 2 2
v -3 3 2
v -2 2 2
v -2 3 2
v -3 0 3
v -3 1 3
v -2 0 3
v -2 1 3
v -3 2 3
v -3 3 3
v -2 2 3
v -2 3 3
v -3 0 4
v -3 1 4
v -2 0 4
v -2 1 4
v -3 2 4
v -3 3 4
v -2 2 4
v -2 3 4
v -3 0 5
v -3 1 5
v -2 0 5
v -2 1 5
v -3 2 5
v -3 3 5
v -2 2 5
v -2 3 5
v -1 0 -4
v -1 0 -5
v -1 1 -5
v -1 1 -4
v -1 2 -4
v -1 2 -5
v -1 3 -5
v -1 3 -4
v -1 0 -3
v -1 1 -3
v -1 2 -3
v -1 3 -3
v -1 0 -2
v -1 1 -2
v -1 2 -2
v -1 3 -2
v -1 0 -1
v -1 1 -1
v -1 2 -1
v -1 3 -1
v -2 4 -2
v -2 4 -1
v -2 5 -1
v -2 5 -2
v -1 4 -1
v -1 4 -2
v -1 5 -2
v -1 5 -1
v -1 0 0
v -1 1 0
v -1 2 0
v -1 3 0
v -1 0 1
v -1 1 1
v -1 2 1
v -1 3 1
v -2 4 0
v -2 4 1
v -2 5 1
v -2 5 0
v -1 4 1
v -1 4 0
v -1 5 0
v -1 5 1
v -1 0 2
v -1 1 2
v -1 2 2
v -1 3 2
v -1 0 3
v -1 1 3
v -1 2 3
v -1 3 3
v -1 0 4
v -1 1 4
v -1 2 4
v -1 3 4
v -1 0 5
v -1 1 5
v -1 2 5
v -1 3 5
v 0 0 -4
v 0 0 -5
v 0 1 -5
v 0 1 -4
v 0 2 -4
v 0 2 -5
v 0 3 -5
v 0 3 -4
v 0 0 -3
v 0 1 -3
v 0 2 -3
v 0 3 -3
v 0 0 -2
v 0 1 -2
v 0 2 -2
v 0 3 -2
v -1 4 -3
v -1 5 -3
v 0 4 -2
v 0 4 -3
v 0 5 -3
v 0 5 -2
v 0 0 -1
v 0 1 -1
v 0 2 -1
v 0 4 -1
v 0 5 -1
v 0 0 0
v 0 1 0
v 0 2 0
v 0 5 0
v 0 0 1
v 0 1 1
v 0 2 1
v 0 3 1
v 0 4 1
v 0 4 0
v 0 5 1
v -1 6 0
v -1 6 1
v -1 7 1
v -1 7 0
v 0 6 1
v 0 6 0
v 0 7 0
v -1 8 1
v -1 8 0
v 0 8 0
v 0 8 1
v 0 7 1
v 0 0 2
v 0 1 2
v 0 2 2
v 0 3 2
v -1 4 2
v -1 5 2
v 0 4 2
v 0 5 2
v -1 6 2
v -1 7 2
v 0 6 2
v 0 7 2
v 0 0 3
v 0 1 3
v 0 2 3
v 0 3 3
v 0 0 4
v 0 1 4
v 0 2 4
v 0 3 4
v 0 0 5
v 0 1 5
v 0 2 5
v 0 3 5
v 1 0 -4
v 1 0 -5
v 1 1 -5
v 1 1 -4
v 1 2 -4
v 1 2 -5
v 1 3 -5
v 1 3 -4
v 1 0 -3
v 1 1 -3
v 1 2 -3
v 1 3 -3
v 0 4 -4
v 0 5 -4
v 1 4 -3
v 1 4 -4
v 1 5 -4
v 1 5 -3
v 1 0 -2
v 1 1 -2
v 1 2 -2
v 1 3 -2
v 1 4 -2
v 1 0 -1
v 1 1 -1
v 1 2 -1
v 1 4 -1
v 1 0 0
v 1 1 0
v 1 2 0
v 1 5 -1
v 1 4 0
v 1 5 0
v 0 6 -1
v 1 6 -1
v 1 6 0
v 0 7 -1
v 1 7 -1
v 1 7 0
v 0 8 -1
v 1 8 -1
v 1 8 0
v 0 9 0
v 0 9 -1
v 1 9 -1
v 1 9 0
v 1 0 1
v 1 1 1
v 1 2 1
v 1 4 1
v 1 6 1
v 0 9 1
v 1 8 1
v 1 9 1
v 1 0 2
v 1 1 2
v 1 2 2
v 1 3 2
v 1 3 1
v 1 4 2
v 1 6 2
v 1 7 2
v 0 8 2
v 1 7 1
v 1 8 2
v 1 0 3
v 1 1 3
v 1 2 3
v 0 4 3
v 1 3 3
v 1 4 3
v 0 5 3
v 1 5 2
v 1 5 3
v 1 0 4
v 1 1 4
v 1 2 4
v 1 3 4
v 0 4 4
v 0 5 4
v 1 4 4
v 1 5 4
v 1 0 5
v 1 1 5
v 1 2 5
v 1 3 5
v 2 0 -4
v 2 0 -5
v 2 1 -5
v 2 1 -4
v 2 2 -4
v 2 2 -5
v 2 3 -5
v 2 3 -4
v 2 0 -3
v 2 1 -3
v 2 2 -3
v 2 3 -3
v 2 0 -2
v 2 1 -2
v 2 2 -2
v 2 3 -2
v 1 5 -2
v 2 4 -2
v 2 4 -3
v 2 5 -3
v 2 5 -2
v 2 0 -1
v 2 1 -1
v 2 2 -1
v 2 3 -1
v 2 4 -1
v 2 5 -1
v 2 0 0
v 2 1 0
v 2 2 0
v 2 3 0
v 2 4 0
v 2 5 0
v 2 0 1
v 2 1 1
v 2 2 1
v 2 3 1
v 2 4 1
v 1 5 1
v 2 5 1
v 2 6 1
v 2 6 0
v 2 7 0
v 2 7 1
v 2 8 0
v 2 8 1
v 2 0 2
v 2 1 2
v 2 2 2
v 2 3 2
v 2 4 2
v 2 5 2
v 2 6 2
v 2 7 2
v 2 0 3
v 2 1 3
v 2 2 3
v 2 3 3
v 2 0 4
v 2 1 4
v 2 2 4
v 2 3 4
v 2 0 5
v 2 1 5
v 2 2 5
v 2 3 5
v 3 0 -4
v 3 0 -5
v 3 1 -5
v 3 1 -4
v 3 2 -4
v 3 2 -5
v 3 3 -5
v 3 3 -4
v 3 0 -3
v 3 1 -3
v 3 2 -3
v 3 3 -3
v 3 0 -2
v 3 1 -2
v 3 2 -2
v 3 3 -2
v 3 0 -1
v 3 1 -1
v 3 2 -1
v 3 3 -1
v 3 4 -1
v 3 4 -2
v 3 5 -2
v 3 5 -1
v 3 0 0
v 3 1 0
v 3 2 0
v 3 3 0
v 3 0 1
v 3 1 1
v 3 2 1
v 3 3 1
v 3 4 1
v 3 4 0
v 3 5 0
v 3 5 1
v 3 0 2
v 3 1 2
v 3 2 2
v 3 3 2
v 3 0 3
v 3 1 3
v 3 2 3
v 3 3 3
v 3 0 4
v 3 1 4
v 3 2 4
v 3 3 4
v 3 0 5
v 3 1 5
v 3 2 5
v 3 3 5
v 4 0 -4
v 4 0 -5
v 4 1 -5
v 4 1 -4
v 4 2 -4
v 4 2 -5
v 4 3 -5
v 4 3 -4
v 4 0 -3
v 4 1 -3
v 4 2 -3
v 4 3 -3
v 4 0 -2
v 4 1 -2
v 4 2 -2
v 4 3 -2
v 4 0 -1
v 4 1 -1
v 4 2 -1
v 4 3 -1
v 4 0 0
v 4 1 0
v 4 2 0
v 4 3 0
v 4 0 1
v 4 1 1
v 4 2 1
v 4 3 1
v 4 0 2
v 4 1 2
v 4 2 2
v 4 3 2
v 4 0 3
v 4 1 3
v 4 2 3
v 4 3 3
v 4 0 4
v 4 1 4
v 4 2 4
v 4 3 4
v 4 0 5
v 4 1 5
v 4 2 5
v 4 3 5

g Stone
usemtl Stone
f 110/10/1 111/11/1 112/12/1 109/9/1
f 110/16/2 109/13/2 114/14/2 113/15/2
f 109/10/3 112/11/3 115/12/3 114/9/3
f 111/13/5 116/14/5 115/15/5 112/16/5
f 110/9/6 113/10/6 116/11/6 111/12/6
f 126/10/1 127/11/1 128/12/1 125/9/1
f 126/16/2 125/13/2 130/14/2 129/15/2
f 125/10/3 128/11/3 131/12/3 130/9/3
f 127/13/5 132/14/5 131/15/5 128/16/5
f 126/9/6 129/10/6 132/11/6 127/12/6
f 334/16/2 326/13/2 396/14/2 395/15/2
f 326/10/3 329/11/3 397/12/3 396/9/3
f 395/9/4 396/10/4 397/11/4 398/12/4
f 335/13/5 398/14/5 397/15/5 329/16/5
f 334/9/6 395/10/6 398/11/6 335/12/6
f 346/16/2 340/13/2 408/14/2 407/15/2
f 340/10/3 341/11/3 409/12/3 408/9/3
f 407/9/4 408/10/4 409/11/4 410/12/4
f 348/13/5 410/14/5 409/15/5 341/16/5
f 346/9/6 407/10/6 410/11/6 348/12/6

g Bedrock
usemtl Bedrock
f 2/2/1 3/3/1 4/4/1 1/1/1
f 2/3/2 1/2/2 6/1/2 5/4/2
f 1/2/3 4/3/3 7/4/3 6/1/3
f 3/2/5 8/1/5 7/4/5 4/3/5
f 17/2/1 18/3/1 3/4/1 2/1/1
f 17/3/2 2/2/2 5/1/2 19/4/2
f 18/2/5 20/1/5 8/4/5 3/3/5
f 25/2/1 26/3/1 18/4/1 17/1/1
f 25/3/2 17/2/2 19/1/2 27/4/2
f 26/2/5 28/1/5 20/4/5 18/3/5
f 33/2/1 34/3/1 26/4/1 25/1/1
f 33/4/2 25/1/2 27/2/2 35/3/2
f 34/1/5 36/2/5 28/3/5 26/4/5
f 41/2/1 42/3/1 34/4/1 33/1/1
f 41/4/2 33/1/2 35/2/2 43/3/2
f 42/1/5 44/2/5 36/3/5 34/4/5
f 49/2/1 50/3/1 42/4/1 41/1/1
f 49/2/2 41/3/2 43/4/2 51/1/2
f 50/3/5 52/4/5 44/1/5 42/2/5
f 57/2/1 58/3/1 50/4/1 49/1/1
f 57/4/2 49/1/2 51/2/2 59/3/2
f 58/1/5 60/2/5 52/3/5 50/4/5
f 65/2/1 66/3/1 58/4/1 57/1/1
f 65/4/2 57/1/2 59/2/2 67/3/2
f 66/1/5 68/2/5 60/3/5 58/4/5
f 73/2/1 74/3/1 66/4/1 65/1/1
f 73/1/2 65/4/2 67/3/2 75/2/2
f 74/4/5 76/3/5 68/2/5 66/1/5
f 81/2/1 82/3/1 74/4/1 73/1/1
f 81/2/2 73/3/2 75/4/2 83/1/2
f 82/3/5 84/4/5 76/1/5 74/2/5
f 81/1/6 83/2/6 84/3/6 82/4/6
f 5/3/2 6/2/2 90/1/2 89/4/2
f 6/2/3 7/3/3 91/4/3 90/1/3
f 8/2/5 92/1/5 91/4/5 7/3/5
f 19/4/2 5/1/2 89/2/2 97/3/2
f 20/1/5 98/2/5 92/3/5 8/4/5
f 27/1/2 19/4/2 97/3/2 101/2/2
f 28/4/5 102/3/5 98/2/5 20/1/5
f 35/4/2 27/1/2 101/2/2 105/3/2
f 36/1/5 106/2/5 102/3/5 28/4/5
f 43/1/2 35/4/2 105/3/2 117/2/2
f 44/4/5 118/3/5 106/2/5 36/1/5
f 51/3/2 43/2/2 117/1/2 121/4/2
f 52/2/5 122/1/5 118/4/5 44/3/5
f 59/1/2 51/4/2 121/3/2 133/2/2
f 60/4/5 134/3/5 122/2/5 52/1/5
f 67/1/2 59/4/2 133/3/2 137/2/2
f 68/4/5 138/3/5 134/2/5 60/1/5
f 75/4/2 67/1/2 137/2/2 141/3/2
f 76/1/5 142/2/5 138/3/5 68/4/5
f 83/3/2 75/2/2 141/1/2 145/4/2
f 84/2/5 146/1/5 142/4/5 76/3/5
f 83/1/6 145/2/6 146/3/6 84/4/6
f 89/3/2 90/2/2 150/1/2 149/4/2
f 90/2/3 91/3/3 151/4/3 150/1/3
f 92/2/5 152/1/5 151/4/5 91/3/5
f 97/3/2 89/2/2 149/1/2 157/4/2
f 98/2/5 158/1/5 152/4/5 92/3/5
f 101/4/2 97/1/2 157/2/2 161/3/2
f 102/1/5 162/2/5 158/3/5 98/4/5
f 105/3/2 101/2/2 161/1/2 171/4/2
f 106/2/5 172/1/5 162/4/5 102/3/5
f 117/4/2 105/1/2 171/2/2 176/3/2
f 118/1/5 177/2/5 172/3/5 106/4/5
f 121/1/2 117/4/2 176/3/2 180/2/2
f 122/4/5 181/3/5 177/2/5 118/1/5
f 133/4/2 121/1/2 180/2/2 199/3/2
f 134/1/5 200/2/5 181/3/5 122/4/5
f 137/1/2 133/4/2 199/3/2 211/2/2
f 138/4/5 212/3/5 200/2/5 134/1/5
f 141/4/2 137/1/2 211/2/2 215/3/2
f 142/1/5 216/2/5 212/3/5 138/4/5
f 145/4/2 141/1/2 215/2/2 219/3/2
f 146/1/5 220/2/5 216/3/5 142/4/5
f 145/1/6 219/2/6 220/3/6 146/4/6
f 149/4/2 150/1/2 224/2/2 223/3/2
f 150/2/3 151/3/3 225/4/3 224/1/3
f 152/1/5 226/2/5 225/3/5 151/4/5
f 157/4/2 149/1/2 223/2/2 231/3/2
f 158/1/5 232/2/5 226/3/5 152/4/5
f 161/2/2 157/3/2 231/4/2 241/1/2
f 162/3/5 242/4/5 232/1/5 158/2/5
f 171/2/2 161/3/2 241/4/2 246/1/2
f 172/3/5 247/4/5 242/1/5 162/2/5
f 176/2/2 171/3/2 246/4/2 250/1/2
f 177/3/5 251/4/5 247/1/5 172/2/5
f 180/4/2 176/1/2 250/2/2 269/3/2
f 181/1/5 270/2/5 251/3/5 177/4/5
f 199/2/2 180/3/2 269/4/2 277/1/2
f 200/3/5 278/4/5 270/1/5 181/2/5
f 211/3/2 199/2/2 277/1/2 288/4/2
f 212/2/5 289/1/5 278/4/5 200/3/5
f 215/4/2 211/1/2 288/2/2 297/3/2
f 216/1/5 298/2/5 289/3/5 212/4/5
f 219/4/2 215/1/2 297/2/2 305/3/2
f 220/1/5 306/2/5 298/3/5 216/4/5
f 219/1/6 305/2/6 306/3/6 220/4/6
f 223/2/2 224/3/2 310/4/2 309/1/2
f 224/2/3 225/3/3 311/4/3 310/1/3
f 226/3/5 312/4/5 311/1/5 225/2/5
f 231/3/2 223/2/2 309/1/2 317/4/2
f 232/2/5 318/1/5 312/4/5 226/3/5
f 241/3/2 231/2/2 317/1/2 321/4/2
f 242/2/5 322/1/5 318/4/5 232/3/5
f 246/3/2 241/2/2 321/1/2 330/4/2
f 247/2/5 331/1/5 322/4/5 242/3/5
f 250/1/2 246/4/2 330/3/2 336/2/2
f 251/4/5 337/3/5 331/2/5 247/1/5
f 269/3/2 250/2/2 336/1/2 342/4/2
f 270/2/5 343/1/5 337/4/5 251/3/5
f 277/1/2 269/4/2 342/3/2 355/2/2
f 278/4/5 356/3/5 343/2/5 270/1/5
f 288/4/2 277/1/2 355/2/2 363/3/2
f 289/1/5 364/2/5 356/3/5 278/4/5
f 297/1/2 288/4/2 363/3/2 367/2/2
f 298/4/5 368/3/5 364/2/5 289/1/5
f 305/4/2 297/1/2 367/2/2 371/3/2
f 306/1/5 372/2/5 368/3/5 298/4/5
f 305/1/6 371/2/6 372/3/6 306/4/6
f 309/3/2 310/2/2 376/1/2 375/4/2
f 310/2/3 311/3/3 377/4/3 376/1/3
f 312/2/5 378/1/5 377/4/5 311/3/5
f 317/2/2 309/3/2 375/4/2 383/1/2
f 318/3/5 384/4/5 378/1/5 312/2/5
f 321/3/2 317/2/2 383/1/2 387/4/2
f 322/2/5 388/1/5 384/4/5 318/3/5
f 330/4/2 321/1/2 387/2/2 391/3/2
f 331/1/5 392/2/5 388/3/5 322/4/5
f 336/1/2 330/4/2 391/3/2 399/2/2
f 337/4/5 400/3/5 392/2/5 331/1/5
f 342/2/2 336/3/2 399/4/2 403/1/2
f 343/3/5 404/4/5 400/1/5 337/2/5
f 355/2/2 342/3/2 403/4/2 411/1/2
f 356/3/5 412/4/5 404/1/5 343/2/5
f 363/2/2 355/3/2 411/4/2 415/1/2
f 364/3/5 416/4/5 412/1/5 356/2/5
f 367/3/2 363/2/2 415/1/2 419/4/2
f 368/2/5 420/1/5 416/4/5 364/3/5
f 371/3/2 367/2/2 419/1/2 423/4/2
f 372/2/5 424/1/5 420/4/5 368/3/5
f 371/1/6 423/2/6 424/3/6 372/4/6
f 375/2/2 376/3/2 428/4/2 427/1/2
f 376/2/3 377/3/3 429/4/3 428/1/3
f 427/1/4 428/2/4 429/3/4 430/4/4
f 378/3/5 430/4/5 429/1/5 377/2/5
f 383/1/2 375/4/2 427/3/2 435/2/2
f 435/1/4 427/2/4 430/3/4 436/4/4
f 384/4/5 436/3/5 430/2/5 378/1/5
f 387/2/2 383/3/2 435/4/2 439/1/2
f 439/1/4 435/2/4 436/3/4 440/4/4
f 388/3/5 440/4/5 436/1/5 384/2/5
f 391/4/2 387/1/2 439/2/2 443/3/2
f 443/1/4 439/2/4 440/3/4 444/4/4
f 392/1/5 444/2/5 440/3/5 388/4/5
f 399/1/2 391/4/2 443/3/2 447/2/2
f 447/1/4 443/2/4 444/3/4 448/4/4
f 400/4/5 448/3/5 444/2/5 392/1/5
f 403/4/2 399/1/2 447/2/2 451/3/2
f 451/1/4 447/2/4 448/3/4 452/4/4
f 404/1/5 452/2/5 448/3/5 400/4/5
f 411/3/2 403/2/2 451/1/2 455/4/2
f 455/1/4 451/2/4 452/3/4 456/4/4
f 412/2/5 456/1/5 452/4/5 404/3/5
f 415/3/2 411/2/2 455/1/2 459/4/2
f 459/1/4 455/2/4 456/3/4 460/4/4
f 416/2/5 460/1/5 456/4/5 412/3/5
f 419/3/2 415/2/2 459/1/2 463/4/2
f 463/1/4 459/2/4 460/3/4 464/4/4
f 420/2/5 464/1/5 460/4/5 416/3/5
f 423/4/2 419/1/2 463/2/2 467/3/2
f 467/1/4 463/2/4 464/3/4 468/4/4
f 424/1/5 468/2/5 464/3/5 420/4/5
f 423/1/6 467/2/6 468/3/6 424/4/6

g Wool
usemtl Wool
f 188/26/1 189/27/1 190/28/1 187/25/1
f 188/28/2 187/25/2 192/26/2 191/27/2
f 187/26/3 190/27/3 193/28/3 192/25/3
f 189/26/1 194/27/1 195/28/1 190/25/1
f 190/26/3 195/27/3 196/28/3 193/25/3
f 194/25/5 197/26/5 196/27/5 195/28/5
f 189/25/6 198/26/6 197/27/6 194/28/6
f 207/26/1 208/27/1 189/28/1 188/25/1
f 207/28/2 188/25/2 191/26/2 209/27/2
f 208/25/5 210/26/5 198/27/5 189/28/5
f 207/25/6 209/26/6 210/27/6 208/28/6
f 191/28/2 192/25/2 258/26/2 273/27/2
f 197/26/1 274/27/1 265/28/1 196/25/1
f 275/25/4 264/26/4 268/27/4 276/28/4
f 274/25/5 276/26/5 268/27/5 265/28/5
f 197/25/6 275/26/6 276/27/6 274/28/6
f 209/28/2 191/25/2 273/26/2 283/27/2
f 209/25/6 283/26/6 284/27/6 210/28/6
f 210/26/1 285/27/1 197/28/1 198/25/1
f 284/25/4 286/26/4 275/27/4 287/28/4
f 285/25/5 287/26/5 275/27/5 197/28/5
f 210/25/6 284/26/6 287/27/6 285/28/6
f 273/28/2 258/25/2 350/26/2 349/27/2
f 258/26/3 261/27/3 351/28/3 350/25/3
f 349/25/4 350/26/4 351/27/4 352/28/4
f 261/26/3 264/27/3 353/28/3 351/25/3
f 352/25/4 351/26/4 353/27/4 354/28/4
f 275/25/5 354/26/5 353/27/5 264/28/5
f 286/25/6 352/26/6 354/27/6 275/28/6
f 283/28/2 273/25/2 349/26/2 361/27/2
f 361/25/4 349/26/4 352/27/4 362/28/4
f 284/25/5 362/26/5 352/27/5 286/28/5
f 283/25/6 361/26/6 362/27/6 284/28/6

g Acacia_Log
usemtl Acacia_Log
f 108/21/1 113/22/1 114/23/1 104/24/1
f 104/22/3 114/23/3 167/24/3 164/21/3
f 174/21/4 167/22/4 170/23/4 175/24/4
f 116/21/5 175/22/5 170/23/5 115/24/5
f 120/22/1 130/23/1 113/24/1 108/21/1
f 130/21/1 131/22/1 116/23/1 113/24/1
f 131/21/5 179/22/5 175/23/5 116/24/5
f 124/21/1 129/22/1 130/23/1 120/24/1
f 124/21/6 183/22/6 184/23/6 129/24/6
f 184/22/4 185/23/4 179/24/4 186/21/4
f 132/21/5 186/22/5 179/23/5 131/24/5
f 203/22/1 204/23/1 132/24/1 129/21/1
f 203/24/2 129/21/2 184/22/2 205/23/2
f 205/21/4 184/22/4 186/23/4 206/24/4
f 204/21/5 206/22/5 186/23/5 132/24/5
f 203/21/6 205/22/6 206/23/6 204/24/6
f 174/21/5 249/22/5 245/23/5 167/24/5
f 184/21/5 272/22/5 254/23/5 185/24/5
f 202/22/1 205/23/1 184/24/1 183/21/1
f 280/21/4 281/22/4 272/23/4 282/24/4
f 205/21/5 282/22/5 272/23/5 184/24/5
f 244/22/3 245/23/3 326/24/3 324/21/3
f 333/21/4 324/22/4 326/23/4 334/24/4
f 249/21/1 253/22/1 325/23/1 245/24/1
f 253/21/5 335/22/5 329/23/5 325/24/5
f 339/21/4 333/22/4 334/23/4 340/24/4
f 340/22/4 334/23/4 335/24/4 341/21/4
f 255/21/5 341/22/5 335/23/5 253/24/5
f 345/21/4 339/22/4 340/23/4 346/24/4
f 281/22/6 345/23/6 346/24/6 272/21/6
f 272/21/1 347/22/1 255/23/1 254/24/1
f 347/21/5 348/22/5 341/23/5 255/24/5
f 282/22/1 295/23/1 347/24/1 272/21/1
f 282/24/2 272/21/2 346/22/2 359/23/2
f 359/21/4 346/22/4 348/23/4 360/24/4
f 295/21/5 360/22/5 348/23/5 347/24/5
f 282/21/6 359/22/6 360/23/6 295/24/6

g Stripped_Oak_Wood
usemtl Stripped_Oak_Wood
f 174/30/3 175/31/3 253/32/3 249/29/3
f 185/29/6 254/30/6 255/31/6 179/32/6
f 179/30/1 192/31/1 256/32/1 175/29/1
f 175/30/3 256/31/3 257/32/3 253/29/3
f 255/29/4 253/30/4 257/31/4 258/32/4
f 179/29/6 255/30/6 258/31/6 192/32/6
f 192/30/1 193/31/1 259/32/1 256/29/1
f 256/30/3 259/31/3 260/32/3 257/29/3
f 258/29/4 257/30/4 260/31/4 261/32/4
f 193/30/1 196/31/1 262/32/1 259/29/1
f 259/30/3 262/31/3 263/32/3 260/29/3
f 261/29/4 260/30/4 263/31/4 264/32/4
f 196/30/1 265/31/1 266/32/1 262/29/1
f 262/30/3 266/31/3 267/32/3 263/29/3
f 264/29/4 263/30/4 267/31/4 268/32/4
f 265/29/5 268/30/5 267/31/5 266/32/5

g Stripped_Acacia_Wood
usemtl Stripped_Acacia_Wood
f 114/17/1 115/18/1 166/19/1 165/20/1
f 114/18/2 165/19/2 168/20/2 167/17/2
f 165/18/3 166/19/3 169/20/3 168/17/3
f 167/18/4 168/19/4 169/20/4 170/17/4
f 115/17/5 170/18/5 169/19/5 166/20/5
f 168/18/1 169/19/1 236/20/1 235/17/1
f 168/17/2 235/18/2 238/19/2 237/20/2
f 235/17/3 236/18/3 239/19/3 238/20/3
f 237/17/4 238/18/4 239/19/4 240/20/4
f 169/18/5 240/19/5 239/20/5 236/17/5
f 168/18/6 237/19/6 240/20/6 169/17/6
f 164/17/1 167/18/1 168/19/1 160/20/1
f 160/18/3 168/19/3 237/20/3 234/17/3
f 244/18/4 234/19/4 237/20/4 245/17/4
f 167/17/5 245/18/5 237/19/5 168/20/5
f 214/17/1 291/18/1 205/19/1 202/20/1
f 292/18/4 280/19/4 282/20/4 293/17/4
f 214/17/6 292/18/6 293/19/6 291/20/6
f 291/18/1 294/19/1 206/20/1 205/17/1
f 205/18/3 206/19/3 295/20/3 282/17/3
f 293/17/4 282/18/4 295/19/4 296/20/4
f 294/17/5 296/18/5 295/19/5 206/20/5
f 301/17/1 302/18/1 294/19/1 291/20/1
f 301/18/2 291/19/2 293/20/2 303/17/2
f 303/18/4 293/19/4 296/20/4 304/17/4
f 302/17/5 304/18/5 296/19/5 294/20/5
f 301/17/6 303/18/6 304/19/6 302/20/6
f 245/17/1 325/18/1 240/19/1 237/20/1
f 245/18/2 237/19/2 327/20/2 326/17/2
f 237/18/3 240/19/3 328/20/3 327/17/3
f 326/18/4 327/19/4 328/20/4 329/17/4
f 325/17/5 329/18/5 328/19/5 240/20/5

g Blue_Ice
usemtl Blue_Ice
f 10/6/1 11/7/1 12/8/1 9/5/1
f 10/8/2 9/5/2 14/6/2 13/7/2
f 9/6/3 12/7/3 15/8/3 14/5/3
f 11/5/5 16/6/5 15/7/5 12/8/5
f 21/6/1 22/7/1 11/8/1 10/5/1
f 21/8/2 10/5/2 13/6/2 23/7/2
f 22/5/5 24/6/5 16/7/5 11/8/5
f 29/6/1 30/7/1 22/8/1 21/5/1
f 29/8/2 21/5/2 23/6/2 31/7/2
f 30/5/5 32/6/5 24/7/5 22/8/5
f 37/6/1 38/7/1 30/8/1 29/5/1
f 37/8/2 29/5/2 31/6/2 39/7/2
f 38/5/5 40/6/5 32/7/5 30/8/5
f 45/6/1 46/7/1 38/8/1 37/5/1
f 45/8/2 37/5/2 39/6/2 47/7/2
f 46/5/5 48/6/5 40/7/5 38/8/5
f 53/6/1 54/7/1 46/8/1 45/5/1
f 53/8/2 45/5/2 47/6/2 55/7/2
f 54/5/5 56/6/5 48/7/5 46/8/5
f 61/6/1 62/7/1 54/8/1 53/5/1
f 61/8/2 53/5/2 55/6/2 63/7/2
f 62/5/5 64/6/5 56/7/5 54/8/5
f 69/6/1 70/7/1 62/8/1 61/5/1
f 69/8/2 61/5/2 63/6/2 71/7/2
f 70/5/5 72/6/5 64/7/5 62/8/5
f 77/6/1 78/7/1 70/8/1 69/5/1
f 77/8/2 69/5/2 71/6/2 79/7/2
f 78/5/5 80/6/5 72/7/5 70/8/5
f 85/6/1 86/7/1 78/8/1 77/5/1
f 85/8/2 77/5/2 79/6/2 87/7/2
f 86/5/5 88/6/5 80/7/5 78/8/5
f 85/5/6 87/6/6 88/7/6 86/8/6
f 13/8/2 14/5/2 94/6/2 93/7/2
f 14/6/3 15/7/3 95/8/3 94/5/3
f 16/5/5 96/6/5 95/7/5 15/8/5
f 23/8/2 13/5/2 93/6/2 99/7/2
f 24/5/5 100/6/5 96/7/5 16/8/5
f 31/8/2 23/5/2 99/6/2 103/7/2
f 32/5/5 104/6/5 100/7/5 24/8/5
f 39/8/2 31/5/2 103/6/2 107/7/2
f 40/5/5 108/6/5 104/7/5 32/8/5
f 47/8/2 39/5/2 107/6/2 119/7/2
f 48/5/5 120/6/5 108/7/5 40/8/5
f 55/8/2 47/5/2 119/6/2 123/7/2
f 56/5/5 124/6/5 120/7/5 48/8/5
f 63/8/2 55/5/2 123/6/2 135/7/2
f 64/5/5 136/6/5 124/7/5 56/8/5
f 71/8/2 63/5/2 135/6/2 139/7/2
f 72/5/5 140/6/5 136/7/5 64/8/5
f 79/8/2 71/5/2 139/6/2 143/7/2
f 80/5/5 144/6/5 140/7/5 72/8/5
f 87/8/2 79/5/2 143/6/2 147/7/2
f 88/5/5 148/6/5 144/7/5 80/8/5
f 87/5/6 147/6/6 148/7/6 88/8/6
f 93/8/2 94/5/2 154/6/2 153/7/2
f 94/6/3 95/7/3 155/8/3 154/5/3
f 96/5/5 156/6/5 155/7/5 95/8/5
f 99/8/2 93/5/2 153/6/2 159/7/2
f 100/5/5 160/6/5 156/7/5 96/8/5
f 103/8/2 99/5/2 159/6/2 163/7/2
f 104/5/5 164/6/5 160/7/5 100/8/5
f 107/8/2 103/5/2 163/6/2 173/7/2
f 119/8/2 107/5/2 173/6/2 178/7/2
f 123/8/2 119/5/2 178/6/2 182/7/2
f 135/8/2 123/5/2 182/6/2 201/7/2
f 136/5/5 202/6/5 183/7/5 124/8/5
f 139/8/2 135/5/2 201/6/2 213/7/2
f 140/5/5 214/6/5 202/7/5 136/8/5
f 143/8/2 139/5/2 213/6/2 217/7/2
f 144/5/5 218/6/5 214/7/5 140/8/5
f 147/8/2 143/5/2 217/6/2 221/7/2
f 148/5/5 222/6/5 218/7/5 144/8/5
f 147/5/6 221/6/6 222/7/6 148/8/6
f 153/8/2 154/5/2 228/6/2 227/7/2
f 154/6/3 155/7/3 229/8/3 228/5/3
f 156/5/5 230/6/5 229/7/5 155/8/5
f 159/8/2 153/5/2 227/6/2 233/7/2
f 160/5/5 234/6/5 230/7/5 156/8/5
f 163/8/2 159/5/2 233/6/2 243/7/2
f 173/8/2 163/5/2 243/6/2 248/7/2
f 178/8/2 173/5/2 248/6/2 252/7/2
f 182/8/2 178/5/2 252/6/2 271/7/2
f 201/8/2 182/5/2 271/6/2 279/7/2
f 213/8/2 201/5/2 279/6/2 290/7/2
f 217/8/2 213/5/2 290/6/2 299/7/2
f 218/5/5 300/6/5 292/7/5 214/8/5
f 221/8/2 217/5/2 299/6/2 307/7/2
f 222/5/5 308/6/5 300/7/5 218/8/5
f 221/5/6 307/6/6 308/7/6 222/8/6
f 227/8/2 228/5/2 314/6/2 313/7/2
f 228/6/3 229/7/3 315/8/3 314/5/3
f 230/5/5 316/6/5 315/7/5 229/8/5
f 233/8/2 227/5/2 313/6/2 319/7/2
f 234/5/5 320/6/5 316/7/5 230/8/5
f 243/8/2 233/5/2 319/6/2 323/7/2
f 244/5/5 324/6/5 320/7/5 234/8/5
f 248/8/2 243/5/2 323/6/2 332/7/2
f 252/8/2 248/5/2 332/6/2 338/7/2
f 271/8/2 252/5/2 338/6/2 344/7/2
f 279/8/2 271/5/2 344/6/2 357/7/2
f 280/5/5 358/6/5 345/7/5 281/8/5
f 290/8/2 279/5/2 357/6/2 365/7/2
f 292/5/5 366/6/5 358/7/5 280/8/5
f 299/8/2 290/5/2 365/6/2 369/7/2
f 300/5/5 370/6/5 366/7/5 292/8/5
f 307/8/2 299/5/2 369/6/2 373/7/2
f 308/5/5 374/6/5 370/7/5 300/8/5
f 307/5/6 373/6/6 374/7/6 308/8/6
f 313/8/2 314/5/2 380/6/2 379/7/2
f 314/6/3 315/7/3 381/8/3 380/5/3
f 316/5/5 382/6/5 381/7/5 315/8/5
f 319/8/2 313/5/2 379/6/2 385/7/2
f 320/5/5 386/6/5 382/7/5 316/8/5
f 323/8/2 319/5/2 385/6/2 389/7/2
f 324/5/5 390/6/5 386/7/5 320/8/5
f 332/8/2 323/5/2 389/6/2 393/7/2
f 333/5/5 394/6/5 390/7/5 324/8/5
f 338/8/2 332/5/2 393/6/2 401/7/2
f 339/5/5 402/6/5 394/7/5 333/8/5
f 344/8/2 338/5/2 401/6/2 405/7/2
f 345/5/5 406/6/5 402/7/5 339/8/5
f 357/8/2 344/5/2 405/6/2 413/7/2
f 358/5/5 414/6/5 406/7/5 345/8/5
f 365/8/2 357/5/2 413/6/2 417/7/2
f 366/5/5 418/6/5 414/7/5 358/8/5
f 369/8/2 365/5/2 417/6/2 421/7/2
f 370/5/5 422/6/5 418/7/5 366/8/5
f 373/8/2 369/5/2 421/6/2 425/7/2
f 374/5/5 426/6/5 422/7/5 370/8/5
f 373/5/6 425/6/6 426/7/6 374/8/6
f 379/8/2 380/5/2 432/6/2 431/7/2
f 380/6/3 381/7/3 433/8/3 432/5/3
f 431/5/4 432/6/4 433/7/4 434/8/4
f 382/5/5 434/6/5 433/7/5 381/8/5
f 385/8/2 379/5/2 431/6/2 437/7/2
f 437/5/4 431/6/4 434/7/4 438/8/4
f 386/5/5 438/6/5 434/7/5 382/8/5
f 389/8/2 385/5/2 437/6/2 441/7/2
f 441/5/4 437/6/4 438/7/4 442/8/4
f 390/5/5 442/6/5 438/7/5 386/8/5
f 393/8/2 389/5/2 441/6/2 445/7/2
f 445/5/4 441/6/4 442/7/4 446/8/4
f 394/5/5 446/6/5 442/7/5 390/8/5
f 401/8/2 393/5/2 445/6/2 449/7/2
f 449/5/4 445/6/4 446/7/4 450/8/4
f 402/5/5 450/6/5 446/7/5 394/8/5
f 405/8/2 401/5/2 449/6/2 453/7/2
f 453/5/4 449/6/4 450/7/4 454/8/4
f 406/5/5 454/6/5 450/7/5 402/8/5
f 413/8/2 405/5/2 453/6/2 457/7/2
f 457/5/4 453/6/4 454/7/4 458/8/4
f 414/5/5 458/6/5 454/7/5 406/8/5
f 417/8/2 413/5/2 457/6/2 461/7/2
f 461/5/4 457/6/4 458/7/4 462/8/4
f 418/5/5 462/6/5 458/7/5 414/8/5
f 421/8/2 417/5/2 461/6/2 465/7/2
f 465/5/4 461/6/4 462/7/4 466/8/4
f 422/5/5 466/6/5 462/7/5 418/8/5
f 425/8/2 421/5/2 465/6/2 469/7/2
f 469/5/4 465/6/4 466/7/4 470/8/4
f 426/5/5 470/6/5 466/7/5 422/8/5
f 425/5/6 469/6/6 470/7/6 426/8/6
